<svg xmlns="http://www.w3.org/2000/svg" xmlns:xlink="http://www.w3.org/1999/xlink" width="375" height="504" viewBox="0 0 375 504">
  <defs>
    <clipPath id="clip-path">
      <rect id="Rectangle_60" data-name="Rectangle 60" width="375" height="504" transform="translate(759.545)" fill="none" stroke="#fff" stroke-width="3"/>
    </clipPath>
    <clipPath id="clip-path-2">
      <rect id="Rectangle_72" data-name="Rectangle 72" width="48.354" height="17.41" fill="none"/>
    </clipPath>
    <clipPath id="clip-path-4">
      <rect id="Rectangle_74" data-name="Rectangle 74" width="48.794" height="13.428" fill="none"/>
    </clipPath>
    <clipPath id="clip-path-5">
      <rect id="Rectangle_75" data-name="Rectangle 75" width="48.498" height="11" fill="none"/>
    </clipPath>
  </defs>
  <g id="Group_85" data-name="Group 85" transform="translate(-3640 -1526)">
    <g id="Group_81" data-name="Group 81" transform="translate(2865.455 1384)">
      <g id="Group_51" data-name="Group 51" transform="translate(15 142)" clip-path="url(#clip-path)" style="mix-blend-mode: darken;isolation: isolate">
        <path id="Path_51" data-name="Path 51" d="M1190.795,457.472c-5.95-3.774-12.024-7.291-17.815-11.412-11.876-8.445-19.163-22.146-26.453-35.951-3.278-6.211-4.562-11.69-.407-17.743,1.93-2.813,1.216-4.988-.862-7-1.635-1.58-3.278-3.16-4.845-4.839-3.039-3.259-6.026-6.395-5.3-12.418.176-1.461-1.571-3.626-2.8-4.943-4.806-5.176-5.767-10.248-2.843-17.346.937-2.279,2.193-4.359,3.29-6.543,5.978-11.858,3.829-26.292-5.109-34.47-2.437-2.229-4.949-4.374-7.206-6.86-2.353-2.6-2.975-6.187-.558-8.871,3.988-4.428,3.254-9.7,3.083-15.3-.219-7.068-.69-14.424.578-21.185,1.424-7.564.211-13.824-1.97-20.63-1.9-5.914-2.508-12.447-4.08-18.55a19.131,19.131,0,0,0-3.713-7.722c-3.4-3.764-3.549-7.128-.546-11.115,1.089-1.441,1.954-3.14,3.067-4.552,2.365-3.017,2.117-5.914-.012-8.876-2.548-3.542-5.181-7.009-7.605-10.679-5.336-8.074-5.073-9.877,1.906-15.657.179-.144.14-.7.315-1.758-4.842-3.339-10.022-6.419-14.752-10.342-3.063-2.546-6.273-5.79-7.944-9.693-1.974-4.611-4.463-6.756-8.187-8.832-6.907-3.859-15.143-6.875-15.39-19.308a3.586,3.586,0,0,0-1.256-2.288c-4.223-3.4-15.729-2.68-19.976,1.03-5.452,4.76-10.373,10.481-17.791,10.818-3.35.154-4.782-1-5.488-4.542-1.763-8.851-8.076-12.116-12.654-17.515l-1.021,1.08c2.245,3.883,4.495,7.762,6.955,12.026-4.212,2.392-7.155,1.238-9.364-2.467-2.174-3.641-4.945-7.826-2.142-12.3,2.5-3.987,1.846-6.717-.566-9.713-2.923-3.626-3.829-7.975-3.6-13.007.1-2.3-.538-4.651-.842-6.984l-1.763-.535a73.9,73.9,0,0,0-3.88,8.079c-1.141,3.249-1.42,7-2.736,10.095a14.121,14.121,0,0,1-4.57,5.384c-3.1,2.318-6.68,3.69-9.647,6.211-12.75,10.828-28.535,9.911-40.028-2.645-6.106-6.667-8.5-6.385-12.419,2.482-2.349,5.315-5.567,7.326-9.827,5.047-10.126-5.419-19.661-2.62-29.109,2.407-3.809,2.026-7.4,4.7-11.25,6.563-2.6,1.263-5.615,2.68-8.239,2.219-15.055-2.645-30.166-5.929-42.744-17.421-11.8-10.773-22.944-22.646-34.381-34.024-4.152-4.136-6.114-9.431-5.891-16.088.056-1.694-.1-4.116-.957-5.018-5.42-5.681-4.566-12.883-3.88-20.3a27.062,27.062,0,0,0-.7-8.747C773.888.778,771.456-.99,768.109.556,761.685,3.528,755.4,6.985,748.883,9.6c-7.757,3.106-15.637,5.805-23.574,8.123-3.709,1.09-7.342,1.649-8.678,6.87-2.9,11.283-5.671,22.616-8.542,33.915-1.049,4.126-2.221,8.2-3.358,12.294-1.918,6.88-3.96,13.706-5.755,20.635-4.985,19.2-9.268,38.715-14.919,57.6C673.173,185.4,656.4,218.1,641.432,251.918c-1.819,4.111-4.076,5.825-7.972,5.8-12.55-.089-12.7.109-12.531,16.029.048,4.914-1.164,8.317-4.439,10.907-4.566,3.616-9.149,7.232-13.544,11.16-28.953,25.851-59.789,47.12-94.326,59.122-9.388,3.259-17.161,9.139-23.988,17.539a13.419,13.419,0,0,1-6.1,4.354c-7.1,2.14-11.422,8.257-15.159,15.31a45.171,45.171,0,0,0-5.32,25.316c.3,3.7.379,6.964-4.566,5.751-5.791-1.427-10.6,1.327-15.167,6.959-11.645,14.359-23.9,27.976-36.248,41.424-3.992,4.349-5.464,8.376-2.911,14.3,1.807,4.205,1.508,8.064-.626,12.264a14.559,14.559,0,0,0-1.021,8.381c2.907,14.751.51,27.906-7.111,39.571-8.319,12.73-16.551,25.583-25.38,37.759a31.227,31.227,0,0,0-6.445,17.227,21.028,21.028,0,0,1-2.509,8.1c-3.673,6.915-7.442,13.79-11.581,20.274-3.031,4.745-3.322,9.253-1.882,14.889,1.982,7.777,3.665,16.351.243,23.736-3.362,7.256-6.241,13.542-1.089,21.051a2.267,2.267,0,0,1,.263,1.129c.443,16.227,1.639,32.582-7.274,46.645-3.37,5.325-2.477,9.268,2.7,11.323,6.3,2.5,10,8.029,13.085,14.706,1.978,4.285,3.49,9.3,6.305,12.507,5.767,6.558,5.6,13.453,2.887,21.482-3.757,11.14-8.168,22.106-10.672,33.687-4.483,20.724-14.05,37.006-25.835,51.91-2.863,3.626-5.986,7.7-7.3,12.309-5.731,20.085-18.142,33.652-29.384,48.418-2.389,3.14-5.153,6.023-6.943,9.639-8.379,16.92-19.657,29.065-34.6,36.758a125.332,125.332,0,0,0-26.664,18.441c-16.766,15.221-31.478,33.34-44.73,53.3a42.235,42.235,0,0,1-11.45,11.947c-6.879,4.468-14.361,7.524-21.623,11.065-6.947,3.393-13.823,7.128-20.949,9.818-7.884,2.977-16.1,4.567-24.024,7.415-17.891,6.429-35.586,14.984-54.689,9.515-8.722-2.492-14.736,2.145-19.5,9.768-5.89,9.421-11.565,18.911-19.833,25.425-.774.6-1.033,2.224-1.527,3.373,1.069.609,2.11,1.65,3.214,1.758,5.081.515,10.178.827,15.274,1.1q56.37,3.069,112.739,6.1c27.861,1.526,55.714,3.259,83.582,4.646,34.72,1.729,69.441,3.779,104.181,4.636,42.892,1.055,85.8,1.04,128.7,1.466,6.481.064,6.517,0,6.513-7.762q-.03-56.764-.108-113.528c0-2.125-.171-4.25-.263-6.38-6.792.589-9.966-3.626-7.661-10.065.834-2.323,3.071-3.824,4.507-5.87a43.32,43.32,0,0,0,2.481-4.606c-.423-.327-.846-.654-1.268-.986a6.114,6.114,0,0,1-1.5,1.189c-1.236.426-2.512.659-3.773.971.1-1.808-.339-4.255.435-5.285a9.667,9.667,0,0,1,4.889-3.106c8.028-2.422,15.705-5.032,22.042-12.66a200.871,200.871,0,0,1,22.76-23.518c14.1-12.21,28.858-23.246,43.1-35.217,7.565-6.36,15.211-11.635,24.411-6.92,6.022,3.086,10.022.466,13.843-4.77a48.522,48.522,0,0,1,5.428-6.682c1.571-1.486,3.565-2.932,5.456-3.135,6.485-.684,10.186-6.35,12.4-12.353,5.4-14.632,16.762-21.408,28.8-15.573,3.813,1.848,7.31,3.046,11.494,1.09,1.858-.867,4.957.01,6.684,1.526,3.837,3.368,7.254,6.459,11.849,1.976a2.875,2.875,0,0,1,2.788-.213c5.476,2.323,7.131-1.55,7.952-7.182,1.36-9.322,6.094-14.374,13.548-14.562,8.881-.223,17.922-.768,26.62.956,7.6,1.506,14.186-.763,20.032-5.161,5.994-4.512,11.506-9.04,18.86-7.851a3.827,3.827,0,0,0,2.293-.733c18.014-10.659,36.108-21.245,50.493-39.036a42.437,42.437,0,0,0,7.155-13.022c3.936-11.9,7.386-24.058,10.624-36.283,1.787-6.737,5.184-9.119,10.632-9.585a14.348,14.348,0,0,0,8.878-4.176c5.188-5.567,10.74-8.485,17.643-9.124a42.812,42.812,0,0,0,16.918-4.874c7.055-3.973,13.472-9.7,20.108-14.781a22.546,22.546,0,0,0,3.589-3.849q7.555-9.451,15.039-19c6.05-7.717,12.57-10.54,21.552-7.133,4.878,1.853,11.055.06,16.3-1.684,5.276-1.753,7.884-12.294,4.718-15.865-3.39-3.824-6.82-7.6-10.1-11.561-1.667-2.011-3.079-2.744-4.73-.154-2,3.14-4.957,5.131-7.346,2.343-1.388-1.62-1.675-6.38-.845-8.911a58.064,58.064,0,0,0,2.915-19c-.016-2.422,2.185-5.082,3.737-7.227.861-1.194,2.465-1.55,4.606-2.789-1.946-1.253-2.86-2.125-3.888-2.462-5.4-1.758-8.132-6.132-7.9-12.953.255-7.47.634-14.959,1.416-22.369.626-5.954,3.92-9.094,8.7-8.846,5.875.3,11.721,1.313,17.6,1.739,3.585.258,7.358.812,10.76-.233,5.528-1.7,10.884-4.393,16.2-7.038,6.5-3.23,12.917-6.727,19.29-10.333,3.813-2.155,5.548-6.132,5.93-11.343.578-7.88,1.256-15.771,2.269-23.577,1.041-8,3.326-10.521,9.895-10.991,4.443-.322,8.921.223,13.38.158,2.182-.03,4.594.079,6.493-.991a70.365,70.365,0,0,1,32.782-9.525c19.322-.654,38.641-1.367,57.612,3.829,8.156,2.229,15.557,1.659,22.533-3.675,4.559-3.487,8.786-2.878,13.081.049,2.217,1.511,4.064,4.022,6.373,5.1,2.106.986,5.922,1.862,6.652.639,1.32-2.209,1.559-6.211,1.013-9.1s-2.5-5.449-4.028-7.985c-2.612-4.354-2.923-8.871-1.639-14.018,2.4-9.585,6.413-17.579,13.189-23.32,2.3-1.952,4.367-4.339,7.342-7.331-3.434-2.145-5.942-3.69-8.435-5.27" transform="translate(0 -0.001)" fill="#270f0c" stroke="#fff" stroke-width="3"/>
      </g>
    </g>
    <g id="Ellipse_33" data-name="Ellipse 33" transform="translate(3869.5 1655.786)" fill="#e6332a" stroke="#fff" stroke-width="4">
      <ellipse cx="23" cy="22" rx="23" ry="22" stroke="none"/>
      <ellipse cx="23" cy="22" rx="21" ry="20" fill="none"/>
    </g>
    <g id="Polygon_5" data-name="Polygon 5" transform="translate(3722 1655.786)" fill="#fd8e3f">
      <path d="M 42.40183639526367 35 L 3.598164796829224 35 L 23 3.788352251052856 L 42.40183639526367 35 Z" stroke="none"/>
      <path d="M 23 7.576704025268555 L 7.196331024169922 33 L 38.80366897583008 33 L 23 7.576704025268555 M 23 0 L 46 37 L 0 37 L 23 0 Z" stroke="none" fill="#fff"/>
    </g>
    <g id="Polygon_6" data-name="Polygon 6" transform="translate(3649 1988.786)" fill="#fd8e3f">
      <path d="M 20.15241622924805 18.5 L 0.8475841879844666 18.5 L 10.5 1.033723831176758 L 20.15241622924805 18.5 Z" stroke="none"/>
      <path d="M 10.5 2.06745719909668 L 1.695173263549805 18 L 19.3048267364502 18 L 10.5 2.06745719909668 M 10.5 0 L 21 19 L 0 19 L 10.5 0 Z" stroke="none" fill="#fff"/>
    </g>
    <g id="Ellipse_34" data-name="Ellipse 34" transform="translate(3649 1955.786)" fill="#e6332a" stroke="#fff" stroke-width="1">
      <ellipse cx="10.5" cy="10" rx="10.5" ry="10" stroke="none"/>
      <ellipse cx="10.5" cy="10" rx="10" ry="9.5" fill="none"/>
    </g>
    <g id="Rectangle_76" data-name="Rectangle 76" transform="translate(3932 1806.786)" fill="#3929fd" stroke="#fff" stroke-width="4">
      <rect width="46" height="42" stroke="none"/>
      <rect x="2" y="2" width="42" height="38" fill="none"/>
    </g>
    <g id="Rectangle_77" data-name="Rectangle 77" transform="translate(3649 1922.786)" fill="#3929fd" stroke="#fff" stroke-width="1">
      <rect width="21" height="20" stroke="none"/>
      <rect x="0.5" y="0.5" width="20" height="19" fill="none"/>
    </g>
    <text id="Al_Hoceima_" data-name="Al Hoceima ⵜⴰⵖⵣⵓⵜ" transform="translate(3736 2004.786)" fill="#f9f7ed" font-size="12" font-family="NeueMachina-Ultrabold, Neue Machina" font-weight="700"><tspan x="-59.458" y="0">Al Hoceima </tspan><tspan y="0" font-family="Ebrima-Bold, Ebrima">ⵜⴰⵖⵣⵓⵜ</tspan></text>
    <text id="Nador_" data-name="Nador ⵏⵏⴰⴹⵓⵔ" transform="translate(3715 1970.786)" fill="#f9f7ed" font-size="12" font-family="NeueMachina-Ultrabold, Neue Machina" font-weight="700"><tspan x="-39.464" y="0">Nador </tspan><tspan y="0" font-family="Ebrima-Bold, Ebrima">ⵏⵏⴰⴹⵓⵔ</tspan></text>
    <text id="Oujda_" data-name="Oujda ⵡⵊⴷⴰ" transform="translate(3710 1936.786)" fill="#f9f7ed" font-size="12" font-family="NeueMachina-Ultrabold, Neue Machina" font-weight="700"><tspan x="-34.762" y="0">Oujda </tspan><tspan y="0" font-family="Ebrima-Bold, Ebrima">ⵡⵊⴷⴰ</tspan></text>
    <g id="Group_82" data-name="Group 82" transform="translate(3933.457 1856.045)">
      <path id="Path_80" data-name="Path 80" d="M10.152.557V14.994H2.581V.557H.556V16.792H12.175V.557Z" transform="translate(-0.083 -0.083)" fill="#0619ff"/>
      <g id="Group_71" data-name="Group 71" transform="translate(0 0)">
        <g id="Group_70" data-name="Group 70" clip-path="url(#clip-path-2)">
          <path id="Path_81" data-name="Path 81" d="M.557.557H2.581V14.994h7.572V.557h2.022V16.791H.557Z" transform="translate(-0.083 -0.083)" fill="none" stroke="#fff" stroke-miterlimit="10" stroke-width="1.113"/>
        </g>
      </g>
      <path id="Path_82" data-name="Path 82" d="M18.135.557v1.8h3.66V14.994h-3.66v1.8h9.344v-1.8h-3.66V2.353h3.66V.557Z" transform="translate(-2.699 -0.083)" fill="#0619ff"/>
      <g id="Group_73" data-name="Group 73" transform="translate(0 0)">
        <g id="Group_72" data-name="Group 72" clip-path="url(#clip-path-2)">
          <path id="Path_83" data-name="Path 83" d="M18.135.557h9.344v1.8h-3.66V14.994h3.66v1.8H18.135v-1.8h3.66V2.353h-3.66Z" transform="translate(-2.699 -0.083)" fill="none" stroke="#fff" stroke-miterlimit="10" stroke-width="1.113"/>
          <path id="Path_84" data-name="Path 84" d="M33.16,16.792H31.251L36.844.557h1.8l5.594,16.235h-1.91L38.8,6.537c-.244-.712-.451-1.345-.626-1.9s-.316-1.027-.421-1.421a3.519,3.519,0,0,1-.124.455c-.054.152-.1.311-.148.477q-.069.227-1.149,3.388T33.16,16.792" transform="translate(-4.652 -0.083)" fill="#0619ff"/>
          <path id="Path_85" data-name="Path 85" d="M33.16,16.792H31.251L36.844.557h1.8l5.594,16.235h-1.91L38.8,6.537c-.244-.712-.451-1.345-.626-1.9s-.316-1.027-.421-1.421a3.519,3.519,0,0,1-.124.455c-.054.152-.1.311-.148.477q-.069.227-1.149,3.388T33.16,16.792Z" transform="translate(-4.652 -0.083)" fill="none" stroke="#fff" stroke-miterlimit="10" stroke-width="1.113"/>
          <path id="Path_86" data-name="Path 86" d="M49.415,16a2.852,2.852,0,0,1,.386-1.49,2.93,2.93,0,0,1,1.047-1.034,2.933,2.933,0,0,1,4,4A2.777,2.777,0,0,1,53.8,18.508a2.94,2.94,0,0,1-1.478.376,2.861,2.861,0,0,1-2.069-.818A2.771,2.771,0,0,1,49.415,16m1.592,0a1.235,1.235,0,0,0,.409.933,1.315,1.315,0,0,0,.933.386,1.24,1.24,0,0,0,.909-.386,1.319,1.319,0,0,0,0-1.866,1.245,1.245,0,0,0-.909-.385,1.308,1.308,0,0,0-.944.385,1.254,1.254,0,0,0-.4.933" transform="translate(-7.356 -1.947)" fill="#0619ff"/>
          <path id="Path_87" data-name="Path 87" d="M49.415,16a2.852,2.852,0,0,1,.386-1.49,2.93,2.93,0,0,1,1.047-1.034,2.933,2.933,0,0,1,4,4A2.777,2.777,0,0,1,53.8,18.508a2.94,2.94,0,0,1-1.478.376,2.861,2.861,0,0,1-2.069-.818A2.771,2.771,0,0,1,49.415,16Zm1.592,0a1.235,1.235,0,0,0,.409.933,1.315,1.315,0,0,0,.933.386,1.24,1.24,0,0,0,.909-.386,1.319,1.319,0,0,0,0-1.866,1.245,1.245,0,0,0-.909-.385,1.308,1.308,0,0,0-.944.385A1.254,1.254,0,0,0,51.007,16Z" transform="translate(-7.356 -1.947)" fill="none" stroke="#fff" stroke-miterlimit="10" stroke-width="1.113"/>
        </g>
      </g>
    </g>
    <g id="Group_83" data-name="Group 83" transform="translate(3866.706 1708.786)">
      <path id="Path_88" data-name="Path 88" d="M2.8,1.215,5.529,13.094H7.07L4.272.969ZM.375,13.094H1.951V.62H.375Z" transform="translate(-0.081 -0.134)" fill="#e6332a"/>
      <g id="Group_76" data-name="Group 76" transform="translate(0 0)">
        <g id="Group_75" data-name="Group 75" clip-path="url(#clip-path-4)">
          <path id="Path_89" data-name="Path 89" d="M1.953,13.093H.376V.619H1.953ZM4.273.969l2.8,12.124H5.53L2.8,1.214Z" transform="translate(-0.081 -0.134)" fill="none" stroke="#fff" stroke-miterlimit="10" stroke-width="0.75"/>
          <path id="Path_90" data-name="Path 90" d="M12.358,13.316a2.172,2.172,0,0,1,.3-1.144,2.337,2.337,0,0,1,3.117-.8,2.231,2.231,0,0,1,.815.805,2.292,2.292,0,0,1,0,2.27,2.151,2.151,0,0,1-.815.8,2.316,2.316,0,0,1-1.151.288,2.239,2.239,0,0,1-1.611-.628,2.11,2.11,0,0,1-.656-1.591m1.239,0a.943.943,0,0,0,.32.717,1.031,1.031,0,0,0,.727.3,1.013,1.013,0,0,0,0-2.026,1.025,1.025,0,0,0-.736.3.957.957,0,0,0-.311.717" transform="translate(-2.678 -2.401)" fill="#e6332a"/>
          <path id="Path_91" data-name="Path 91" d="M12.358,13.316a2.172,2.172,0,0,1,.3-1.144,2.337,2.337,0,0,1,3.117-.8,2.231,2.231,0,0,1,.815.805,2.292,2.292,0,0,1,0,2.27,2.151,2.151,0,0,1-.815.8,2.316,2.316,0,0,1-1.151.288,2.239,2.239,0,0,1-1.611-.628A2.11,2.11,0,0,1,12.358,13.316Zm1.239,0a.943.943,0,0,0,.32.717,1.031,1.031,0,0,0,.727.3,1.013,1.013,0,0,0,0-2.026,1.025,1.025,0,0,0-.736.3A.957.957,0,0,0,13.6,13.316Z" transform="translate(-2.678 -2.401)" fill="none" stroke="#fff" stroke-miterlimit="10" stroke-width="0.75"/>
          <path id="Path_92" data-name="Path 92" d="M22.126.62H30.8V2H23.7V6.159h7.1V7.538H23.7v4.175h7.1v1.381H22.126Z" transform="translate(-4.795 -0.134)" fill="#e6332a"/>
          <path id="Path_93" data-name="Path 93" d="M22.126.62H30.8V2H23.7V6.159h7.1V7.538H23.7v4.175h7.1v1.381H22.126Z" transform="translate(-4.795 -0.134)" fill="none" stroke="#fff" stroke-miterlimit="10" stroke-width="0.75"/>
          <path id="Path_94" data-name="Path 94" d="M36.348,2.611a2.186,2.186,0,0,1,.3-1.144A2.337,2.337,0,0,1,39.766.673a2.232,2.232,0,0,1,.813.8,2.171,2.171,0,0,1,.3,1.136,2.128,2.128,0,0,1-.3,1.128A2.341,2.341,0,0,1,37,4.2a2.105,2.105,0,0,1-.654-1.589m0,8.385a2.186,2.186,0,0,1,.3-1.144,2.339,2.339,0,0,1,3.119-.8,2.239,2.239,0,0,1,.813.805,2.218,2.218,0,0,1-.813,3.065,2.318,2.318,0,0,1-1.153.288A2.244,2.244,0,0,1,37,12.587,2.109,2.109,0,0,1,36.348,11m1.239-8.385a.943.943,0,0,0,.319.717,1.035,1.035,0,0,0,.726.3.972.972,0,0,0,.707-.3.965.965,0,0,0,.3-.717.97.97,0,0,0-.3-.717.972.972,0,0,0-.707-.3,1.027,1.027,0,0,0-.735.3.959.959,0,0,0-.31.717m0,8.385a.945.945,0,0,0,.319.717,1.028,1.028,0,0,0,.726.3,1.013,1.013,0,0,0,0-2.026,1.025,1.025,0,0,0-.735.3.959.959,0,0,0-.31.717" transform="translate(-7.877 -0.081)" fill="#e6332a"/>
          <path id="Path_95" data-name="Path 95" d="M36.348,2.611a2.186,2.186,0,0,1,.3-1.144A2.337,2.337,0,0,1,39.766.673a2.232,2.232,0,0,1,.813.8,2.171,2.171,0,0,1,.3,1.136,2.128,2.128,0,0,1-.3,1.128A2.341,2.341,0,0,1,37,4.2,2.105,2.105,0,0,1,36.348,2.611Zm0,8.385a2.186,2.186,0,0,1,.3-1.144,2.339,2.339,0,0,1,3.119-.8,2.239,2.239,0,0,1,.813.805,2.218,2.218,0,0,1-.813,3.065,2.318,2.318,0,0,1-1.153.288A2.244,2.244,0,0,1,37,12.587,2.109,2.109,0,0,1,36.348,11Zm1.239-8.385a.943.943,0,0,0,.319.717,1.035,1.035,0,0,0,.726.3.972.972,0,0,0,.707-.3.965.965,0,0,0,.3-.717.97.97,0,0,0-.3-.717.972.972,0,0,0-.707-.3,1.027,1.027,0,0,0-.735.3A.959.959,0,0,0,37.587,2.611Zm0,8.385a.945.945,0,0,0,.319.717,1.028,1.028,0,0,0,.726.3,1.013,1.013,0,0,0,0-2.026,1.025,1.025,0,0,0-.735.3A.959.959,0,0,0,37.587,11Z" transform="translate(-7.877 -0.081)" fill="none" stroke="#fff" stroke-miterlimit="10" stroke-width="0.75"/>
          <path id="Path_96" data-name="Path 96" d="M45.3,6.786a6.165,6.165,0,0,1,.513-2.525,6.414,6.414,0,0,1,1.417-2.034A6.634,6.634,0,0,1,49.313.864,6.436,6.436,0,0,1,51.8.375a6.361,6.361,0,0,1,2.568.516A6.556,6.556,0,0,1,57.821,4.35a6.17,6.17,0,0,1,.5,2.453A6.057,6.057,0,0,1,57.8,9.275,6.679,6.679,0,0,1,56.4,11.328a6.614,6.614,0,0,1-7.163,1.381,6.37,6.37,0,0,1-2.063-1.4A6.529,6.529,0,0,1,45.8,9.259a6.223,6.223,0,0,1-.5-2.473m1.559.034a4.972,4.972,0,0,0,.371,1.9,5.149,5.149,0,0,0,1.045,1.617,4.933,4.933,0,0,0,1.577,1.108,4.739,4.739,0,0,0,1.948.4,4.605,4.605,0,0,0,1.939-.41,5.068,5.068,0,0,0,1.567-1.119,5.273,5.273,0,0,0,1.054-1.615,4.88,4.88,0,0,0,.381-1.9A5.132,5.132,0,0,0,55.324,3.25a4.909,4.909,0,0,0-1.576-1.111,4.951,4.951,0,0,0-3.9,0A4.936,4.936,0,0,0,48.276,3.25,5.131,5.131,0,0,0,46.86,6.821" transform="translate(-9.817 -0.081)" fill="#e6332a"/>
          <path id="Path_97" data-name="Path 97" d="M45.3,6.786a6.165,6.165,0,0,1,.513-2.525,6.414,6.414,0,0,1,1.417-2.034A6.634,6.634,0,0,1,49.313.864,6.436,6.436,0,0,1,51.8.375a6.361,6.361,0,0,1,2.568.516A6.556,6.556,0,0,1,57.821,4.35a6.17,6.17,0,0,1,.5,2.453A6.057,6.057,0,0,1,57.8,9.275,6.679,6.679,0,0,1,56.4,11.328a6.614,6.614,0,0,1-7.163,1.381,6.37,6.37,0,0,1-2.063-1.4A6.529,6.529,0,0,1,45.8,9.259,6.223,6.223,0,0,1,45.3,6.786Zm1.559.034a4.972,4.972,0,0,0,.371,1.9,5.149,5.149,0,0,0,1.045,1.617,4.933,4.933,0,0,0,1.577,1.108,4.739,4.739,0,0,0,1.948.4,4.605,4.605,0,0,0,1.939-.41,5.068,5.068,0,0,0,1.567-1.119,5.273,5.273,0,0,0,1.054-1.615,4.88,4.88,0,0,0,.381-1.9A5.132,5.132,0,0,0,55.324,3.25a4.909,4.909,0,0,0-1.576-1.111,4.951,4.951,0,0,0-3.9,0A4.936,4.936,0,0,0,48.276,3.25,5.131,5.131,0,0,0,46.86,6.821Z" transform="translate(-9.817 -0.081)" fill="none" stroke="#fff" stroke-miterlimit="10" stroke-width="0.75"/>
        </g>
      </g>
    </g>
    <g id="Group_84" data-name="Group 84" transform="translate(3722 1699.786)">
      <path id="Path_98" data-name="Path 98" d="M2.636.467V4.909H.25V6.052H2.636V10.8H3.925V6.052H6.312V4.909H3.925V.467Z" transform="translate(-0.067 -0.125)" fill="#fd8e3f"/>
      <g id="Group_79" data-name="Group 79" transform="translate(0 0)">
        <g id="Group_78" data-name="Group 78" clip-path="url(#clip-path-5)">
          <path id="Path_99" data-name="Path 99" d="M6.311,6.052H3.925V10.8H2.636V6.052H.25V4.909H2.636V.467H3.925V4.909H6.311Z" transform="translate(-0.067 -0.125)" fill="none" stroke="#fff" stroke-miterlimit="10" stroke-width="0.5"/>
          <path id="Path_100" data-name="Path 100" d="M11.076,11.583a1.815,1.815,0,0,1,.245-.948,1.864,1.864,0,0,1,.666-.658,1.866,1.866,0,0,1,2.545,2.547,1.761,1.761,0,0,1-.665.658,1.872,1.872,0,0,1-.94.239,1.821,1.821,0,0,1-1.317-.52,1.76,1.76,0,0,1-.534-1.318m1.012,0a.782.782,0,0,0,.26.593.837.837,0,0,0,.593.246.789.789,0,0,0,.579-.246.838.838,0,0,0,0-1.186.791.791,0,0,0-.579-.245.83.83,0,0,0-.6.245.8.8,0,0,0-.253.593" transform="translate(-2.964 -2.604)" fill="#fd8e3f"/>
          <path id="Path_101" data-name="Path 101" d="M11.076,11.583a1.815,1.815,0,0,1,.245-.948,1.864,1.864,0,0,1,.666-.658,1.866,1.866,0,0,1,2.545,2.547,1.761,1.761,0,0,1-.665.658,1.872,1.872,0,0,1-.94.239,1.821,1.821,0,0,1-1.317-.52A1.76,1.76,0,0,1,11.076,11.583Zm1.012,0a.782.782,0,0,0,.26.593.837.837,0,0,0,.593.246.789.789,0,0,0,.579-.246.838.838,0,0,0,0-1.186.791.791,0,0,0-.579-.245.83.83,0,0,0-.6.245A.8.8,0,0,0,12.088,11.583Z" transform="translate(-2.964 -2.604)" fill="none" stroke="#fff" stroke-miterlimit="10" stroke-width="0.5"/>
          <path id="Path_102" data-name="Path 102" d="M27.29.467V6.486h-3.2V10.8H22.8V6.486h-3.2V.467H20.9V5.343H26V.467Z" transform="translate(-5.247 -0.125)" fill="#fd8e3f"/>
          <path id="Path_103" data-name="Path 103" d="M27.29.467V6.486h-3.2V10.8H22.8V6.486h-3.2V.467H20.9V5.343H26V.467Z" transform="translate(-5.247 -0.125)" fill="none" stroke="#fff" stroke-miterlimit="10" stroke-width="0.5"/>
          <path id="Path_104" data-name="Path 104" d="M39.013,6.631a4.6,4.6,0,0,1,2.1.6,4.88,4.88,0,0,1,1.576,1.454,5.426,5.426,0,0,1,.869,2.112H42.37a4.249,4.249,0,0,0-1.2-2.17,3.487,3.487,0,0,0-2.155-.883V10.8H37.726V7.745a3.473,3.473,0,0,0-2.155.89,4.275,4.275,0,0,0-1.2,2.163H33.2a5.754,5.754,0,0,1,.839-2.1,4.566,4.566,0,0,1,1.548-1.461,4.669,4.669,0,0,1,2.142-.6v-2a4.619,4.619,0,0,1-2.155-.608,4.581,4.581,0,0,1-1.542-1.468A5.835,5.835,0,0,1,33.2.468H34.37a4.33,4.33,0,0,0,1.186,2.163,3.44,3.44,0,0,0,2.171.89V.468h1.287V3.521a3.464,3.464,0,0,0,2.155-.89A4.277,4.277,0,0,0,42.37.468h1.186a5.608,5.608,0,0,1-.869,2.091,4.964,4.964,0,0,1-1.576,1.49,4.259,4.259,0,0,1-2.1.585Z" transform="translate(-8.884 -0.125)" fill="#fd8e3f"/>
          <path id="Path_105" data-name="Path 105" d="M39.013,6.631a4.6,4.6,0,0,1,2.1.6,4.88,4.88,0,0,1,1.576,1.454,5.426,5.426,0,0,1,.869,2.112H42.37a4.249,4.249,0,0,0-1.2-2.17,3.487,3.487,0,0,0-2.155-.883V10.8H37.726V7.745a3.473,3.473,0,0,0-2.155.89,4.275,4.275,0,0,0-1.2,2.163H33.2a5.754,5.754,0,0,1,.839-2.1,4.566,4.566,0,0,1,1.548-1.461,4.669,4.669,0,0,1,2.142-.6v-2a4.619,4.619,0,0,1-2.155-.608,4.581,4.581,0,0,1-1.542-1.468A5.835,5.835,0,0,1,33.2.468H34.37a4.33,4.33,0,0,0,1.186,2.163,3.44,3.44,0,0,0,2.171.89V.468h1.287V3.521a3.464,3.464,0,0,0,2.155-.89A4.277,4.277,0,0,0,42.37.468h1.186a5.608,5.608,0,0,1-.869,2.091,4.964,4.964,0,0,1-1.576,1.49,4.259,4.259,0,0,1-2.1.585Z" transform="translate(-8.884 -0.125)" fill="none" stroke="#fff" stroke-miterlimit="10" stroke-width="0.5"/>
          <path id="Path_106" data-name="Path 106" d="M50.087,2.1a1.822,1.822,0,0,1,.245-.948,1.854,1.854,0,0,1,3.458.948,1.8,1.8,0,0,1-.246.934,1.864,1.864,0,0,1-.665.658,1.922,1.922,0,0,1-2.257-.275A1.753,1.753,0,0,1,50.087,2.1m0,6.944a1.822,1.822,0,0,1,.245-.948A1.857,1.857,0,0,1,51,7.44a1.921,1.921,0,0,1,1.882,0,1.853,1.853,0,0,1,.665.666,1.918,1.918,0,0,1,0,1.88,1.782,1.782,0,0,1-.665.658,1.875,1.875,0,0,1-.941.239,1.819,1.819,0,0,1-1.316-.52,1.756,1.756,0,0,1-.535-1.318M51.1,2.1a.789.789,0,0,0,.26.593.846.846,0,0,0,.593.246.8.8,0,0,0,.579-.246.809.809,0,0,0,.246-.593.809.809,0,0,0-.246-.593.793.793,0,0,0-.579-.246.83.83,0,0,0-.6.246A.8.8,0,0,0,51.1,2.1m0,6.944a.787.787,0,0,0,.26.593.839.839,0,0,0,.593.246.79.79,0,0,0,.579-.246.838.838,0,0,0,0-1.186.792.792,0,0,0-.579-.245.83.83,0,0,0-.6.245.8.8,0,0,0-.253.593" transform="translate(-13.403 -0.067)" fill="#fd8e3f"/>
          <path id="Path_107" data-name="Path 107" d="M50.087,2.1a1.822,1.822,0,0,1,.245-.948,1.854,1.854,0,0,1,3.458.948,1.8,1.8,0,0,1-.246.934,1.864,1.864,0,0,1-.665.658,1.922,1.922,0,0,1-2.257-.275A1.753,1.753,0,0,1,50.087,2.1Zm0,6.944a1.822,1.822,0,0,1,.245-.948A1.857,1.857,0,0,1,51,7.44a1.921,1.921,0,0,1,1.882,0,1.853,1.853,0,0,1,.665.666,1.918,1.918,0,0,1,0,1.88,1.782,1.782,0,0,1-.665.658,1.875,1.875,0,0,1-.941.239,1.819,1.819,0,0,1-1.316-.52A1.756,1.756,0,0,1,50.087,9.046ZM51.1,2.1a.789.789,0,0,0,.26.593.846.846,0,0,0,.593.246.8.8,0,0,0,.579-.246.809.809,0,0,0,.246-.593.809.809,0,0,0-.246-.593.793.793,0,0,0-.579-.246.83.83,0,0,0-.6.246A.8.8,0,0,0,51.1,2.1Zm0,6.944a.787.787,0,0,0,.26.593.839.839,0,0,0,.593.246.79.79,0,0,0,.579-.246.838.838,0,0,0,0-1.186.792.792,0,0,0-.579-.245.83.83,0,0,0-.6.245A.8.8,0,0,0,51.1,9.046Z" transform="translate(-13.403 -0.067)" fill="none" stroke="#fff" stroke-miterlimit="10" stroke-width="0.5"/>
          <path id="Path_108" data-name="Path 108" d="M63.753,6.052H61.367V10.8H60.079V6.052H57.692V4.909h2.387V.467h1.288V4.909h2.386Z" transform="translate(-15.438 -0.125)" fill="#fd8e3f"/>
          <path id="Path_109" data-name="Path 109" d="M63.753,6.052H61.367V10.8H60.079V6.052H57.692V4.909h2.387V.467h1.288V4.909h2.386Z" transform="translate(-15.438 -0.125)" fill="none" stroke="#fff" stroke-miterlimit="10" stroke-width="0.5"/>
        </g>
      </g>
    </g>
  </g>
</svg>
