<svg xmlns="http://www.w3.org/2000/svg" xmlns:xlink="http://www.w3.org/1999/xlink" width="375" height="504" viewBox="0 0 375 504">
  <defs>
    <clipPath id="clip-path">
      <rect id="Rectangle_60" data-name="Rectangle 60" width="375" height="504" transform="translate(759.545)" fill="none" stroke="#fff" stroke-width="3"/>
    </clipPath>
  </defs>
  <g id="Group_52" data-name="Group 52" transform="translate(-774.545 -142)">
    <g id="Group_51" data-name="Group 51" transform="translate(15 142)" clip-path="url(#clip-path)" style="mix-blend-mode: darken;isolation: isolate">
      <path id="Path_51" data-name="Path 51" d="M1190.795,457.472c-5.95-3.774-12.024-7.291-17.815-11.412-11.876-8.445-19.163-22.146-26.453-35.951-3.278-6.211-4.562-11.69-.407-17.743,1.93-2.813,1.216-4.988-.862-7-1.635-1.58-3.278-3.16-4.845-4.839-3.039-3.259-6.026-6.395-5.3-12.418.176-1.461-1.571-3.626-2.8-4.943-4.806-5.176-5.767-10.248-2.843-17.346.937-2.279,2.193-4.359,3.29-6.543,5.978-11.858,3.829-26.292-5.109-34.47-2.437-2.229-4.949-4.374-7.206-6.86-2.353-2.6-2.975-6.187-.558-8.871,3.988-4.428,3.254-9.7,3.083-15.3-.219-7.068-.69-14.424.578-21.185,1.424-7.564.211-13.824-1.97-20.63-1.9-5.914-2.508-12.447-4.08-18.55a19.131,19.131,0,0,0-3.713-7.722c-3.4-3.764-3.549-7.128-.546-11.115,1.089-1.441,1.954-3.14,3.067-4.552,2.365-3.017,2.117-5.914-.012-8.876-2.548-3.542-5.181-7.009-7.605-10.679-5.336-8.074-5.073-9.877,1.906-15.657.179-.144.14-.7.315-1.758-4.842-3.339-10.022-6.419-14.752-10.342-3.063-2.546-6.273-5.79-7.944-9.693-1.974-4.611-4.463-6.756-8.187-8.832-6.907-3.859-15.143-6.875-15.39-19.308a3.586,3.586,0,0,0-1.256-2.288c-4.223-3.4-15.729-2.68-19.976,1.03-5.452,4.76-10.373,10.481-17.791,10.818-3.35.154-4.782-1-5.488-4.542-1.763-8.851-8.076-12.116-12.654-17.515l-1.021,1.08c2.245,3.883,4.495,7.762,6.955,12.026-4.212,2.392-7.155,1.238-9.364-2.467-2.174-3.641-4.945-7.826-2.142-12.3,2.5-3.987,1.846-6.717-.566-9.713-2.923-3.626-3.829-7.975-3.6-13.007.1-2.3-.538-4.651-.842-6.984l-1.763-.535a73.9,73.9,0,0,0-3.88,8.079c-1.141,3.249-1.42,7-2.736,10.095a14.121,14.121,0,0,1-4.57,5.384c-3.1,2.318-6.68,3.69-9.647,6.211-12.75,10.828-28.535,9.911-40.028-2.645-6.106-6.667-8.5-6.385-12.419,2.482-2.349,5.315-5.567,7.326-9.827,5.047-10.126-5.419-19.661-2.62-29.109,2.407-3.809,2.026-7.4,4.7-11.25,6.563-2.6,1.263-5.615,2.68-8.239,2.219-15.055-2.645-30.166-5.929-42.744-17.421-11.8-10.773-22.944-22.646-34.381-34.024-4.152-4.136-6.114-9.431-5.891-16.088.056-1.694-.1-4.116-.957-5.018-5.42-5.681-4.566-12.883-3.88-20.3a27.062,27.062,0,0,0-.7-8.747C773.888.778,771.456-.99,768.109.556,761.685,3.528,755.4,6.985,748.883,9.6c-7.757,3.106-15.637,5.805-23.574,8.123-3.709,1.09-7.342,1.649-8.678,6.87-2.9,11.283-5.671,22.616-8.542,33.915-1.049,4.126-2.221,8.2-3.358,12.294-1.918,6.88-3.96,13.706-5.755,20.635-4.985,19.2-9.268,38.715-14.919,57.6C673.173,185.4,656.4,218.1,641.432,251.918c-1.819,4.111-4.076,5.825-7.972,5.8-12.55-.089-12.7.109-12.531,16.029.048,4.914-1.164,8.317-4.439,10.907-4.566,3.616-9.149,7.232-13.544,11.16-28.953,25.851-59.789,47.12-94.326,59.122-9.388,3.259-17.161,9.139-23.988,17.539a13.419,13.419,0,0,1-6.1,4.354c-7.1,2.14-11.422,8.257-15.159,15.31a45.171,45.171,0,0,0-5.32,25.316c.3,3.7.379,6.964-4.566,5.751-5.791-1.427-10.6,1.327-15.167,6.959-11.645,14.359-23.9,27.976-36.248,41.424-3.992,4.349-5.464,8.376-2.911,14.3,1.807,4.205,1.508,8.064-.626,12.264a14.559,14.559,0,0,0-1.021,8.381c2.907,14.751.51,27.906-7.111,39.571-8.319,12.73-16.551,25.583-25.38,37.759a31.227,31.227,0,0,0-6.445,17.227,21.028,21.028,0,0,1-2.509,8.1c-3.673,6.915-7.442,13.79-11.581,20.274-3.031,4.745-3.322,9.253-1.882,14.889,1.982,7.777,3.665,16.351.243,23.736-3.362,7.256-6.241,13.542-1.089,21.051a2.267,2.267,0,0,1,.263,1.129c.443,16.227,1.639,32.582-7.274,46.645-3.37,5.325-2.477,9.268,2.7,11.323,6.3,2.5,10,8.029,13.085,14.706,1.978,4.285,3.49,9.3,6.305,12.507,5.767,6.558,5.6,13.453,2.887,21.482-3.757,11.14-8.168,22.106-10.672,33.687-4.483,20.724-14.05,37.006-25.835,51.91-2.863,3.626-5.986,7.7-7.3,12.309-5.731,20.085-18.142,33.652-29.384,48.418-2.389,3.14-5.153,6.023-6.943,9.639-8.379,16.92-19.657,29.065-34.6,36.758a125.332,125.332,0,0,0-26.664,18.441c-16.766,15.221-31.478,33.34-44.73,53.3a42.235,42.235,0,0,1-11.45,11.947c-6.879,4.468-14.361,7.524-21.623,11.065-6.947,3.393-13.823,7.128-20.949,9.818-7.884,2.977-16.1,4.567-24.024,7.415-17.891,6.429-35.586,14.984-54.689,9.515-8.722-2.492-14.736,2.145-19.5,9.768-5.89,9.421-11.565,18.911-19.833,25.425-.774.6-1.033,2.224-1.527,3.373,1.069.609,2.11,1.65,3.214,1.758,5.081.515,10.178.827,15.274,1.1q56.37,3.069,112.739,6.1c27.861,1.526,55.714,3.259,83.582,4.646,34.72,1.729,69.441,3.779,104.181,4.636,42.892,1.055,85.8,1.04,128.7,1.466,6.481.064,6.517,0,6.513-7.762q-.03-56.764-.108-113.528c0-2.125-.171-4.25-.263-6.38-6.792.589-9.966-3.626-7.661-10.065.834-2.323,3.071-3.824,4.507-5.87a43.32,43.32,0,0,0,2.481-4.606c-.423-.327-.846-.654-1.268-.986a6.114,6.114,0,0,1-1.5,1.189c-1.236.426-2.512.659-3.773.971.1-1.808-.339-4.255.435-5.285a9.667,9.667,0,0,1,4.889-3.106c8.028-2.422,15.705-5.032,22.042-12.66a200.871,200.871,0,0,1,22.76-23.518c14.1-12.21,28.858-23.246,43.1-35.217,7.565-6.36,15.211-11.635,24.411-6.92,6.022,3.086,10.022.466,13.843-4.77a48.522,48.522,0,0,1,5.428-6.682c1.571-1.486,3.565-2.932,5.456-3.135,6.485-.684,10.186-6.35,12.4-12.353,5.4-14.632,16.762-21.408,28.8-15.573,3.813,1.848,7.31,3.046,11.494,1.09,1.858-.867,4.957.01,6.684,1.526,3.837,3.368,7.254,6.459,11.849,1.976a2.875,2.875,0,0,1,2.788-.213c5.476,2.323,7.131-1.55,7.952-7.182,1.36-9.322,6.094-14.374,13.548-14.562,8.881-.223,17.922-.768,26.62.956,7.6,1.506,14.186-.763,20.032-5.161,5.994-4.512,11.506-9.04,18.86-7.851a3.827,3.827,0,0,0,2.293-.733c18.014-10.659,36.108-21.245,50.493-39.036a42.437,42.437,0,0,0,7.155-13.022c3.936-11.9,7.386-24.058,10.624-36.283,1.787-6.737,5.184-9.119,10.632-9.585a14.348,14.348,0,0,0,8.878-4.176c5.188-5.567,10.74-8.485,17.643-9.124a42.812,42.812,0,0,0,16.918-4.874c7.055-3.973,13.472-9.7,20.108-14.781a22.546,22.546,0,0,0,3.589-3.849q7.555-9.451,15.039-19c6.05-7.717,12.57-10.54,21.552-7.133,4.878,1.853,11.055.06,16.3-1.684,5.276-1.753,7.884-12.294,4.718-15.865-3.39-3.824-6.82-7.6-10.1-11.561-1.667-2.011-3.079-2.744-4.73-.154-2,3.14-4.957,5.131-7.346,2.343-1.388-1.62-1.675-6.38-.845-8.911a58.064,58.064,0,0,0,2.915-19c-.016-2.422,2.185-5.082,3.737-7.227.861-1.194,2.465-1.55,4.606-2.789-1.946-1.253-2.86-2.125-3.888-2.462-5.4-1.758-8.132-6.132-7.9-12.953.255-7.47.634-14.959,1.416-22.369.626-5.954,3.92-9.094,8.7-8.846,5.875.3,11.721,1.313,17.6,1.739,3.585.258,7.358.812,10.76-.233,5.528-1.7,10.884-4.393,16.2-7.038,6.5-3.23,12.917-6.727,19.29-10.333,3.813-2.155,5.548-6.132,5.93-11.343.578-7.88,1.256-15.771,2.269-23.577,1.041-8,3.326-10.521,9.895-10.991,4.443-.322,8.921.223,13.38.158,2.182-.03,4.594.079,6.493-.991a70.365,70.365,0,0,1,32.782-9.525c19.322-.654,38.641-1.367,57.612,3.829,8.156,2.229,15.557,1.659,22.533-3.675,4.559-3.487,8.786-2.878,13.081.049,2.217,1.511,4.064,4.022,6.373,5.1,2.106.986,5.922,1.862,6.652.639,1.32-2.209,1.559-6.211,1.013-9.1s-2.5-5.449-4.028-7.985c-2.612-4.354-2.923-8.871-1.639-14.018,2.4-9.585,6.413-17.579,13.189-23.32,2.3-1.952,4.367-4.339,7.342-7.331-3.434-2.145-5.942-3.69-8.435-5.27" transform="translate(0 -0.001)" fill="#270f0c" stroke="#fff" stroke-width="3"/>
    </g>
  </g>
</svg>
