<svg xmlns="http://www.w3.org/2000/svg" viewBox="0 0 1414.8 1414.34"><defs><style>.cls-1{fill:#e94e1b;}</style></defs><g id="Layer_2" data-name="Layer 2"><g id="Laag_1" data-name="Laag 1"><path class="cls-1" d="M743.3,43l-2.82,124.16,46.74,1.06-.93,40.9L646.07,206l.93-40.9,46.74,1.06L696.56,42,649.82,40.9,650.75,0,791,3.18,790,44.08Z"/><path class="cls-1" d="M855.37,134.47l176.86-6.76,4.61-10.75-27.63-2.31L886.5,62l16.14-37.6L1060.26,92l-34,79.21L849.4,178l-4.61,10.74,27.62,2.32,122.72,52.68L979,281.35,821.37,213.68Z"/><path class="cls-1" d="M1160.23,162.18l54.34,58.42c33.43,36,54.15,75,20.34,106.39-24.82,23.09-50.38,9.35-69.43-6.85l-8.56,8,20.49,22c10.95,11.77,10.5,24.16-1.27,35.1L1128,430l-31.84-34.23,53.06-49.36-54.93-59.06-53.06,49.36-31.85-34.24Zm-13.49,121.51c18.91,20.33,30.65,32.95,49.48,15.44,19-17.72,7.3-30.34-11.61-50.67l-22.49-24.18-37.87,35.23Z"/><path class="cls-1" d="M1254.67,577l-24.79-79.81-68.53,2-14-45.21,214.34-4.46,28.61,92.09-179,118-14-45.2Zm35.69-23,76.16-49.36-3.47-11.16-90.72,2.48Z"/><path class="cls-1" d="M1414.8,724.56l-15.68,90.7L1197,843.48,1195,855l30.29-3.66L1388,879.48l-8,46.07-203-35.11,15.69-90.7,202.09-28.22,2-11.52-30.29,3.66-162.69-28.14,8-46.07Z"/><path class="cls-1" d="M1165.84,1244.13l-66.73,43.71c-41.07,26.89-83,40.74-108.3,2.11-18.57-28.35-.72-51.22,18.46-67.28l-6.41-9.78-25.18,16.5c-13.44,8.8-25.58,6.27-34.38-7.17l-36-55,39.11-25.62,39.71,60.62,67.47-44.19-39.71-60.62,39.11-25.62Zm-117.49-33.78c-23.22,15.21-37.64,24.65-23.55,46.16,14.25,21.76,28.67,12.31,51.89-2.9l27.62-18.09L1076,1192.26Z"/><path class="cls-1" d="M905.87,1384.37l-144.42,27.37-7.62-40.19,98.48-18.67-7.73-40.77-84.12,16-7.62-40.2L837,1271.91l-7.79-41.05-98.48,18.66-7.62-40.2L867.5,1182Z"/><path class="cls-1" d="M638.51,1405.72l-18-201-11.5-2.13-89.15,181.11-46.55-8.63,96.17-191.7L664.29,1201l20.77,213.37Z"/><path class="cls-1" d="M349.66,1260.3l61.15-108.09-40.69-23,20.14-35.61,122.09,69.06-20.15,35.61-40.69-23-61.15,108.09,40.69,23L410.91,1342l-122.09-69.06L309,1237.28Z"/><path class="cls-1" d="M309.4,995.84c44.8,59.18,37.33,99.66-4.15,131.06L277,1089.62c25.16-19,23.56-37.63-1.13-70.25-18.17-24-29.76-27.68-38.61-21-11.89,9-2.08,33.09,7.94,63.26,14.63,43.53,26.65,78.78-5.5,103.12-28,21.17-60.09,10.68-92.19-31.72-38.1-50.33-29.59-92.33,3-117l28.22,37.28c-20,15.17-14,34.78,1.36,55,12.7,16.77,24.37,24.44,32.76,18.09,7.45-5.65,7.25-11.73-3.83-44.75-12.68-38-34.73-94.3-.48-120.23C236.79,940.12,271.12,945.28,309.4,995.84Z"/><path class="cls-1" d="M62.35,854.43l120-31.88-12-45.19,39.54-10.51,36,135.57-39.54,10.5-12-45.19-120,31.89,12,45.19-39.54,10.5-36-135.57,39.54-10.5Z"/><path class="cls-1" d="M53.59,565.48l-4.73,67,164.69,11.63-3.29,46.64L45.56,679.17,40.81,746.5,0,743.62l12.78-181Z"/><path class="cls-1" d="M30.78,493.81l61.4-133.55,37.17,17.08L87.48,468.42l37.71,17.33L161,408,198.12,425l-35.76,77.8,38,17.45,41.87-91.07,37.17,17.08L218,579.86Z"/><path class="cls-1" d="M365.15,201c61,64.58,29.2,114.32-10.74,152l-55.23,52.17L157.71,255.43l55.23-52.18C252.88,165.53,304.35,136.6,365.15,201Zm-34,32.11c-40.53-42.91-63.57-25.17-90.12-.09l-21.25,20.07,85.29,90.28,21.24-20.06C352.87,298.19,371.9,276.2,331.16,233.08Z"/><path class="cls-1" d="M732.4,722.2V692.15c67.08-11.43,118.19-68,118.19-135.86a25,25,0,0,0-50,0c0,40.33-28.91,74.41-68.19,84.75V556.29a25,25,0,0,0-50,0V641c-39.28-10.34-68.19-44.42-68.19-84.75a25,25,0,0,0-50,0c0,67.86,51.11,124.43,118.19,135.86v30a144.2,144.2,0,0,0-75.85,37.92c-27.3,26.1-42.34,60.89-42.34,98a25,25,0,0,0,50,0c0-23.29,9.55-45.24,26.89-61.81a93.94,93.94,0,0,1,41.3-23v84.76a25,25,0,0,0,50,0V773.31c39.28,10.34,68.19,44.41,68.19,84.75a25,25,0,0,0,50,0C850.59,790.2,799.48,733.63,732.4,722.2Z"/></g></g></svg>