<svg xmlns="http://www.w3.org/2000/svg" xmlns:xlink="http://www.w3.org/1999/xlink" width="193.139" height="132.137" viewBox="0 0 193.139 132.137">
  <defs>
    <clipPath id="clip-path">
      <rect id="Rectangle_31" data-name="Rectangle 31" width="193.139" height="132.137" fill="none" stroke="#270f0c" stroke-width="0.5"/>
    </clipPath>
  </defs>
  <g id="Group_13" data-name="Group 13" transform="translate(0 0)">
    <g id="Group_12" data-name="Group 12" transform="translate(0 0)" clip-path="url(#clip-path)">
      <path id="Path_12" data-name="Path 12" d="M28.539,112.475C47.426,97.135,66.314,81.8,85.984,65.829,66.37,49.933,47.43,34.587,27.027,18.053,35.775,11.446,43.332,5.745,50.886.038c.254.766.5,1.532.758,2.3C45.788,6.92,39.936,11.5,33.232,16.751c4.65,3.9,8.668,7.52,12.85,10.54.813.587,2.321-1.034,3.44-1.864,5.606-4.162,11.188-8.395,16.773-12.6.218.721.432,1.449.651,2.17-5.792,4.577-11.584,9.148-18.229,14.4,4.622,3.8,8.633,7.475,12.862,10.31,1.107.747,2.971-.855,4.352-1.851C71,34.178,76.018,30.31,81.052,26.511c.218.715.44,1.43.659,2.145-5.491,4.366-10.985,8.727-17.126,13.61,2.948,2.439,5.181,4.884,7.649,6.122,1.857.932,4.269,1.341,5.994.223C83.714,45.056,89,40.683,94.362,36.623c.234.753.468,1.5.7,2.253-5.606,4.379-11.211,8.765-17.63,13.782,4.154,3.415,7.645,6.524,11.283,9.09.885.619,2.372-.2,3.392-.989,5.7-4.424,11.31-9.161,17.043-13.47,1-.747,2.452.057,3.693.147.036.862.067,1.717.1,2.579-6.244,5.126-12.489,10.259-19.3,15.844,6.669,5.433,12.846,10.463,19.019,15.493.075.779.151,1.551.222,2.33-1.238.3-2.725,1.455-3.682.753A158.625,158.625,0,0,1,94.358,72.417c-3.265-3.058-6.03-3.185-9.172.07-2.238,2.311-4.733,3.977-7.716,6.435,6.268,4.967,12.025,9.531,17.781,14.089-.21.728-.417,1.449-.623,2.177-3.662-2.713-7.669-4.628-10.906-8.3-6.728-7.622-12.528-5.126-18.658,2.911,5.633,4.475,11.108,8.822,16.583,13.163-.214.7-.424,1.4-.635,2.1-4.344-3.224-8.9-5.879-12.973-9.812-4.027-3.888-7.454-3.952-11.283.223-2.333,2.547-4.987,4.322-7.986,6.85,6.352,4.992,12.239,9.627,18.13,14.255l-.321,1.57a10.183,10.183,0,0,1-2.618-.977c-2.174-1.513-4.531-2.713-6.4-4.941-8.506-10.112-16.325-7.341-24.077,3.473,5.844,4.6,11.771,9.269,17.7,13.936-.242.76-.488,1.526-.73,2.292Q39.3,123.42,28.134,114.9c.135-.811.27-1.615.4-2.426" transform="translate(80.195 0.204)" fill="none" stroke="#270f0c" stroke-width="0.5"/>
      <path id="Path_13" data-name="Path 13" d="M.012,81.776c6.177-5.018,12.354-10.029,19.269-15.647C12.5,60.537,6.328,55.436.147,50.336c-.048-.747-.1-1.5-.147-2.247,1.305-.255,2.852-1.366,3.876-.619A122.565,122.565,0,0,1,18.3,59.164c3.4,3.345,6.193,3.766,9.5.14,2.174-2.388,4.7-3.952,7.68-6.384C29.294,48.057,23.6,43.582,17.9,39.107c.179-.683.353-1.366.532-2.056,1.853,1.226,3.725,2.375,5.55,3.69,1.873,1.347,3.9,2.432,5.518,4.386,6.609,7.98,12.481,4.922,18.38-3.1Q39.547,35.436,31.262,28.9c.226-.792.452-1.583.678-2.368,3.836,2.981,7.839,5.528,11.473,9.059,4.788,4.647,9.208,5.311,13.905-.134,1.873-2.17,4.126-3.486,6.895-5.745-6.443-5.145-12.318-9.837-18.2-14.529.218-.728.436-1.449.655-2.17,4.285,3.237,8.847,5.784,12.786,9.888,4.935,5.152,9.232,4.628,13.842-.472,1.789-1.985,3.876-3.288,6.474-5.433C73.135,11.765,67.069,6.99,61,2.209c.23-.734.46-1.475.69-2.209,7.681,5.777,15.357,11.548,24.224,18.219C65.55,34.734,46.571,50.125,26.933,66.046c19.515,15.825,38.4,31.14,58.865,47.738-8.752,6.69-16.361,12.512-23.97,18.334-.258-.753-.512-1.513-.77-2.266,5.971-4.692,11.941-9.384,18.793-14.766-4.642-3.747-8.526-7.271-12.624-9.939-1.147-.747-3.023.7-4.4,1.711-5.4,3.939-10.731,8.107-16.087,12.187l-.678-2.145c5.875-4.679,11.747-9.352,18.17-14.466-4.427-3.626-8.291-7.067-12.318-9.895-1.039-.728-2.722.006-3.9.843-5.4,3.817-10.711,7.909-16.059,11.906-.222-.734-.444-1.475-.663-2.209,5.514-4.3,11.029-8.605,17.154-13.38-3.463-2.885-6.26-5.662-9.275-7.526-1.214-.747-3.051,0-4.364.938-5.522,3.952-10.953,8.235-16.42,12.4l-.738-2.356c5.768-4.507,11.537-9.014,17.829-13.923-3.809-3.173-7.062-6.333-10.553-8.554-1.329-.843-3.368-.121-4.777.938-5.443,4.1-10.719,8.778-16.166,12.87-1.063.8-2.606-.077-3.924-.179L.012,81.776" transform="translate(0 -0.001)" fill="none" stroke="#270f0c" stroke-width="0.5"/>
      <path id="Path_14" data-name="Path 14" d="M53,5.361V69.237C39.044,59.189,25.563,49.485,11.1,39.073,25.46,27.519,39.04,16.6,53,5.361" transform="translate(32.933 28.862)" fill="none" stroke="#270f0c" stroke-width="0.5"/>
      <path id="Path_15" data-name="Path 15" d="M27.034,69.209V5.365c13.885,11.152,27.449,22.049,41.89,33.649C54.614,49.33,41.062,59.1,27.034,69.209" transform="translate(80.215 28.883)" fill="none" stroke="#270f0c" stroke-width="0.5"/>
      <path id="Path_16" data-name="Path 16" d="M25.253,121.1V1.248h.92V121.02c-.305.026-.615.057-.92.083" transform="translate(74.931 6.718)" fill="none" stroke="#270f0c" stroke-width="0.5"/>
      <path id="Path_17" data-name="Path 17" d="M23.17,120.5V1.273c.286,0,.575-.006.861-.013V120.566c-.286-.026-.575-.045-.861-.07" transform="translate(68.75 6.783)" fill="none" stroke="#270f0c" stroke-width="0.5"/>
    </g>
  </g>
</svg>
