<svg xmlns="http://www.w3.org/2000/svg" xmlns:xlink="http://www.w3.org/1999/xlink" width="218.523" height="294.942" viewBox="0 0 218.523 294.942">
  <defs>
    <clipPath id="clip-path">
      <rect id="Rectangle_32" data-name="Rectangle 32" width="218.523" height="294.942" fill="none" stroke="#270f0c" stroke-width="0.5"/>
    </clipPath>
  </defs>
  <g id="Group_36" data-name="Group 36" transform="translate(0 0)">
    <g id="Group_14" data-name="Group 14" transform="translate(0 0)" clip-path="url(#clip-path)">
      <path id="Path_18" data-name="Path 18" d="M63.814,54.939c5.216-4.961,9.682-9.213,14.447-13.748q-11.4-9.7-23.809-20.255c2.231-2.246,3.327-3.351,5.15-5.186,7.658,7.4,15.137,14.619,22.93,22.149,4.863-4.844,8.732-8.7,12.9-12.848Q84.641,15.664,72.595,5.181c1.7-1.629,2.931-2.8,4.89-4.677,7.56,7.344,14.762,14.335,22.382,21.733,3.615-3.092,6.534-5.592,10.534-9.012,2.594,3.312,5.075,6.473,8.38,10.69C127.443,15.26,134.824,7.882,142.71,0c2.339,2.05,3.506,3.073,5.585,4.9-8.591,7.319-16.559,14.11-24.824,21.156,4.825,3.963,8.966,7.358,13.362,10.969l22.4-21.611c2.616,1.9,4.011,2.906,6.453,4.682-8.45,7.236-16.58,14.2-24.922,21.342,5.362,4.663,10.16,8.836,15.641,13.6q10.51-10.274,21.541-21.058c2.165,1.8,3.387,2.818,5.047,4.2-7.826,6.757-15.43,13.323-23.055,19.908,5.3,4.472,9.812,8.278,14.854,12.535,6.247-6.126,13.232-12.97,20.52-20.114l6.084,5.137c-8.135,6.238-16.021,12.29-24.054,18.45,7.072,6.37,12.7,11.449,18.729,16.88q10.168-8.726,20.445-17.55c.673.24,1.34.479,2.008.719-.651,1.952-.657,4.477-2.057,5.763-6.817,6.258-14.008,12.183-21.774,18.832-4.711-4.741-9.9-9.956-15.348-15.436-4.89,4.545-9.085,8.44-13.546,12.589,7.739,6.649,15.527,13.337,23.549,20.221-2.307,1.962-3.511,2.989-5.351,4.55-7.283-7.241-14.382-14.3-21.145-21.024-5.145,4.472-9.107,7.921-13.449,11.7l23.044,19.1c-2.9,2.143-4.255,3.141-5.709,4.222l-21.573-20.368c-3.864,3.307-6.9,5.91-10.1,8.64L158.21,142.82c-2.236,2.256-3.349,3.381-5.5,5.553q-10.738-10.994-20.83-21.327c-22.219,14.428-25.638,29.752-4.065,44l13.351-13.425,5.064,3.63c-6.507,5.636-12.83,11.111-19.837,17.173-2.963-3.141-6.6-7-10.6-11.224-5.3,12.3-2.127,19.893,13.226,31.611,1.992-2.319,4.043-4.795,6.2-7.2,2.046-2.29,4.19-4.5,6.442-6.9,2.171,1.585,3.473,2.539,4.988,3.645-6.648,5.563-13.1,10.955-20.564,17.2-2.833-3.278-6.4-7.422-10.643-12.329-4.336,16.19-2.464,20.578,13.1,32.531,2.231-2.265,4.526-4.565,6.784-6.9,2.133-2.2,4.217-4.438,6.54-6.889,2.019,1.693,3.224,2.7,4.326,3.625-6.279,5.666-12.358,11.145-18.887,17.036-3.788-3.263-7.94-6.85-12.781-11.023v33.02h30.93c0,12.447.13,24.307-.206,36.152-.033,1.13-3,2.192-5.894,4.164V260.84H113.967c0,8.19-.136,16.356.054,24.517.092,3.87-1.216,5.519-6.23,4.056V260.674H82.874c0,9.286.054,18.768-.022,28.25-.033,4.384-.147,4.384-5.916,4.012V255.121h30.349V223.475c-4.412,4.55-8.6,8.861-12.9,13.288-7.647-7.354-13.948-13.42-21.02-20.226.374-.328,1.7-1.478,3.967-3.44l14.355,14.893c13.747-7.657,19.658-17.555,14.947-32.228-4.374,4.628-8.515,9.012-12.781,13.523-7.538-6.992-13.861-12.858-20.569-19.081.955-.905,2.209-2.1,3.794-3.611,5.2,4.961,10.095,9.619,14.778,14.081,13.161-7.505,19.63-17.134,14.936-31.342-4.2,4.306-8.391,8.616-12.678,13.014-7.468-7.124-13.682-13.053-20.32-19.385.353-.372,1.536-1.6,3.338-3.479,5.221,5.142,10.138,9.981,15.609,15.363,4.9-4.663,9.194-8.533,13.156-12.662a8.751,8.751,0,0,0,1.862-4.7c1.525-10.045-.483-18.812-10.6-25.016-3.159-1.937-5.5-4.951-8.4-7.637-7.43,7.217-14.6,14.189-22.083,21.449-2.811-2.153-4.179-3.2-6.214-4.761,8.032-6.85,15.7-13.381,23.625-20.138-3.848-3.141-6.985-5.695-10.323-8.415-6.578,6.228-13.59,12.858-20.933,19.81-2.252-1.649-3.631-2.657-5.091-3.728,7.788-6.82,15.229-13.327,22.979-20.114C65.816,104.815,61.73,101.385,57.7,98q-10.665,9.937-22.349,20.828c-2.632-1.942-4.038-2.98-6.187-4.57,8.228-7.036,16.195-13.846,24.357-20.828C49.4,89.843,45.86,86.756,41.426,82.881L25.3,99.57C16.271,91.14,8.325,83.727,0,75.953c.6-.6,1.818-1.8,3.7-3.665,6.741,6.6,13.167,12.882,19.4,18.988L42.615,75.84c-8.83-7.187-16.477-13.411-24.542-19.977,2.714-2.339,4-3.44,6.057-5.216,7.305,6.923,14.306,13.557,21.562,20.427,4.613-4.408,8.884-8.484,13.536-12.931-7.207-6.165-14.7-12.579-22.6-19.345,2.138-1.825,3.425-2.921,5.308-4.526C49.29,41.22,56.3,47.84,63.814,54.939M143.236,52.1C133.353,60.81,123.4,69.578,114,77.856c10.3,9.33,20.754,18.8,30.4,27.541,9.834-8.435,19.826-17,29.758-25.515-10.773-9.682-21.318-19.155-30.93-27.78m-3.457,59.2c-10.979-9.932-21.448-19.409-31.554-28.548-9.492,8.42-19.169,17-28.205,25.016,10.4,9.575,20.873,19.223,31.152,28.7,9.541-8.4,19.147-16.84,28.607-25.163m-32.194-38.48c10.095-8.993,19.88-17.711,29.611-26.376L110.765,22.486c-9.986,8.821-19.951,17.609-29.714,26.234l26.534,24.1M46.745,78.7c9.367,8.538,18.491,16.855,26.778,24.4,9.758-8.787,19.495-17.545,29.019-26.122C93.848,69.1,84.73,60.835,75.634,52.586L46.745,78.7" transform="translate(0 -0.001)" fill="none" stroke="#270f0c" stroke-width="0.5"/>
      <path id="Path_19" data-name="Path 19" d="M50.238,10.649c9.606,8.626,20.151,18.1,30.93,27.78L51.405,63.944c-9.65-8.743-20.1-18.21-30.4-27.541C30.4,28.125,40.355,19.358,50.238,10.649M50.748,24,36.138,37.255c4.548,4.491,9.443,9.32,13.688,13.509C55.264,46.243,60.6,41.81,65.993,37.328Q57.934,30.283,50.748,24" transform="translate(93.003 41.451)" fill="none" stroke="#270f0c" stroke-width="0.5"/>
      <path id="Path_20" data-name="Path 20" d="M74.5,45.461c-9.46,8.317-19.06,16.767-28.6,25.163-10.285-9.472-20.759-19.12-31.158-28.7,9.036-8.009,18.713-16.591,28.205-25.011C53.055,26.052,63.524,35.525,74.5,45.461M43.161,56.176,58.374,42.663,43.2,28.376C38.054,32.8,32.8,37.315,27.276,42.071c5.33,4.731,10.529,9.35,15.886,14.105" transform="translate(65.275 65.835)" fill="none" stroke="#270f0c" stroke-width="0.5"/>
      <path id="Path_21" data-name="Path 21" d="M41.472,54.921c-8.8-7.985-17.785-16.146-26.539-24.091C24.7,22.2,34.661,13.412,44.653,4.6L71.083,28.55c-9.731,8.665-19.516,17.383-29.611,26.371M58.926,29.235c-5.368-5-10.42-9.707-15.37-14.316C38.172,19.67,32.875,24.352,28.642,28.1c5.216,4.917,10.328,9.741,15.289,14.419,4.754-4.213,9.807-8.684,15-13.279" transform="translate(66.112 17.889)" fill="none" stroke="#270f0c" stroke-width="0.5"/>
      <path id="Path_22" data-name="Path 22" d="M8.613,36.86Q23.087,23.782,37.5,10.748c9.1,8.244,18.214,16.513,26.908,24.4L35.391,61.264C27.1,53.715,17.98,45.4,8.613,36.86M20.765,36.4c4.885,4.971,9.715,9.883,14.2,14.448,5.482-4.917,10.621-9.536,15.706-14.1q-7.408-6.62-15.479-13.831C30.23,27.564,25.177,32.28,20.765,36.4" transform="translate(38.132 41.837)" fill="none" stroke="#270f0c" stroke-width="0.5"/>
      <path id="Path_23" data-name="Path 23" d="M38.405,13.378q7.18,6.282,15.245,13.327c-5.395,4.482-10.73,8.914-16.168,13.435-4.244-4.188-9.139-9.017-13.688-13.509l14.61-13.254" transform="translate(105.346 52.074)" fill="none" stroke="#270f0c" stroke-width="0.5"/>
      <path id="Path_24" data-name="Path 24" d="M32.939,47.056C27.582,42.3,22.383,37.682,17.053,32.95c5.525-4.756,10.779-9.267,15.924-13.694L48.151,33.542,32.939,47.056" transform="translate(75.498 74.955)" fill="none" stroke="#270f0c" stroke-width="0.5"/>
      <path id="Path_25" data-name="Path 25" d="M47.743,21.022c-5.188,4.594-10.241,9.066-15,13.279-4.961-4.677-10.073-9.5-15.289-14.419,4.233-3.743,9.53-8.425,14.914-13.176,4.95,4.609,10,9.316,15.37,14.316" transform="translate(77.295 26.103)" fill="none" stroke="#270f0c" stroke-width="0.5"/>
      <path id="Path_26" data-name="Path 26" d="M10.852,26.716c4.412-4.124,9.465-8.841,14.426-13.479q8.059,7.207,15.479,13.831c-5.085,4.56-10.225,9.179-15.706,14.1-4.483-4.565-9.313-9.477-14.2-14.448" transform="translate(48.044 51.526)" fill="none" stroke="#270f0c" stroke-width="0.5"/>
    </g>
  </g>
</svg>
