<svg xmlns="http://www.w3.org/2000/svg" xmlns:xlink="http://www.w3.org/1999/xlink" width="184.917" height="250.915" viewBox="0 0 184.917 250.915">
  <defs>
    <clipPath id="clip-path">
      <rect id="Rectangle_32" data-name="Rectangle 32" width="184.917" height="250.915" fill="none" stroke="#270f0c" stroke-width="0.5"/>
    </clipPath>
  </defs>
  <g id="Group_15" data-name="Group 15" transform="translate(0 0)">
    <g id="Group_14" data-name="Group 14" transform="translate(0 0)" clip-path="url(#clip-path)">
      <path id="Path_18" data-name="Path 18" d="M54,46.738c4.414-4.221,8.193-7.838,12.226-11.7Q56.581,26.788,46.078,17.81c1.888-1.91,2.815-2.851,4.358-4.412,6.48,6.293,12.809,12.437,19.4,18.843,4.115-4.121,7.39-7.4,10.912-10.93q-9.128-7.985-19.321-16.9c1.437-1.386,2.48-2.385,4.138-3.979,6.4,6.248,12.492,12.2,18.94,18.489,3.059-2.631,5.53-4.757,8.914-7.667,2.2,2.818,4.294,5.507,7.091,9.095C107.844,12.982,114.09,6.705,120.763,0c1.979,1.744,2.967,2.614,4.726,4.166-7.27,6.227-14.012,12-21.007,18,4.083,3.371,7.587,6.26,11.307,9.332l18.954-18.385c2.214,1.615,3.394,2.472,5.461,3.983-7.151,6.156-14.03,12.083-21.089,18.156,4.538,3.967,8.6,7.517,13.236,11.571q8.894-8.741,18.228-17.914c1.832,1.532,2.866,2.4,4.271,3.571-6.623,5.748-13.057,11.334-19.509,16.936,4.482,3.8,8.3,7.043,12.57,10.664,5.286-5.211,11.2-11.034,17.365-17.111l5.148,4.37c-6.884,5.307-13.557,10.456-20.355,15.7,5.984,5.419,10.747,9.74,15.849,14.36q8.6-7.423,17.3-14.93c.569.2,1.134.408,1.7.612-.551,1.661-.556,3.808-1.741,4.9C177.408,73.3,171.323,78.342,164.751,84c-3.986-4.033-8.377-8.47-12.988-13.132-4.138,3.867-7.688,7.18-11.463,10.71,6.549,5.657,13.139,11.346,19.927,17.2-1.952,1.669-2.971,2.543-4.528,3.871-6.163-6.16-12.17-12.166-17.893-17.885-4.354,3.8-7.706,6.739-11.381,9.952l19.5,16.25c-2.452,1.823-3.6,2.672-4.831,3.592L122.839,97.231c-3.27,2.814-5.842,5.028-8.547,7.351l19.588,16.92c-1.892,1.919-2.834,2.876-4.652,4.724q-9.086-9.353-17.626-18.143c-18.8,12.275-21.7,25.311-3.44,37.436l11.3-11.421,4.285,3.088c-5.507,4.795-10.857,9.453-16.786,14.61-2.508-2.672-5.589-5.952-8.969-9.548-4.482,10.468-1.8,16.924,11.192,26.892,1.685-1.973,3.422-4.079,5.245-6.123,1.731-1.948,3.545-3.829,5.451-5.873,1.837,1.349,2.939,2.16,4.221,3.1-5.626,4.733-11.082,9.319-17.4,14.635-2.4-2.789-5.419-6.314-9.006-10.489-3.67,13.773-2.085,17.507,11.082,27.675,1.888-1.927,3.83-3.883,5.741-5.873,1.8-1.873,3.568-3.775,5.534-5.86,1.708,1.44,2.728,2.3,3.66,3.084-5.314,4.82-10.457,9.482-15.982,14.493-3.206-2.776-6.719-5.827-10.816-9.378v28.091h26.173c0,10.589.11,20.678-.175,30.755-.028.961-2.54,1.865-4.988,3.542V221.9H96.44c0,6.968-.115,13.914.046,20.857.078,3.292-1.029,4.7-5.272,3.451V221.762H70.129c0,7.9.046,15.967-.018,24.033-.028,3.729-.124,3.729-5.006,3.413v-32.17H90.787V190.116c-3.734,3.871-7.279,7.538-10.917,11.3C73.4,195.165,68.067,190,62.083,184.214c.317-.279,1.442-1.257,3.357-2.926l12.147,12.67c11.633-6.514,16.634-14.934,12.648-27.417-3.7,3.938-7.206,7.667-10.816,11.5-6.379-5.948-11.73-10.938-17.406-16.233.808-.77,1.869-1.79,3.21-3.072,4.4,4.221,8.542,8.183,12.506,11.979,11.137-6.385,16.612-14.576,12.639-26.664-3.55,3.663-7.1,7.33-10.728,11.072L62.446,138.637c.3-.316,1.3-1.361,2.824-2.959,4.418,4.375,8.579,8.491,13.208,13.07,4.147-3.967,7.78-7.259,11.132-10.772a7.467,7.467,0,0,0,1.575-4c1.291-8.545-.409-16-8.969-21.282-2.673-1.648-4.657-4.212-7.1-6.5-6.287,6.139-12.359,12.071-18.687,18.247-2.379-1.831-3.536-2.722-5.259-4.05,6.8-5.827,13.286-11.384,19.992-17.132-3.256-2.672-5.911-4.845-8.735-7.159-5.566,5.3-11.5,10.938-17.714,16.853-1.906-1.4-3.072-2.26-4.308-3.172,6.59-5.8,12.887-11.338,19.445-17.111-4.152-3.509-7.61-6.427-11.022-9.307Q39.8,91.824,29.912,101.089c-2.227-1.652-3.417-2.535-5.236-3.888,6.962-5.985,13.7-11.779,20.612-17.719-3.481-3.051-6.48-5.677-10.232-8.974l-13.649,14.2C13.769,77.535,7.045,71.229,0,64.615c.51-.508,1.539-1.528,3.132-3.118,5.7,5.611,11.142,10.959,16.419,16.154l16.51-13.132c-7.472-6.114-13.943-11.409-20.768-16.995,2.3-1.99,3.385-2.926,5.125-4.437,6.182,5.89,12.106,11.534,18.246,17.378,3.9-3.75,7.518-7.217,11.454-11C44.02,44.22,37.682,38.763,31,33.007c1.809-1.553,2.9-2.485,4.492-3.85C41.71,35.067,47.644,40.7,54,46.738m67.208-2.414c-8.363,7.409-16.786,14.868-24.736,21.91,8.712,7.937,17.562,15.991,25.728,23.429,8.322-7.176,16.777-14.46,25.181-21.706-9.116-8.237-18.04-16.3-26.173-23.633m-2.925,50.359c-9.291-8.449-18.15-16.512-26.7-24.287C83.549,77.56,75.36,84.861,67.714,91.678c8.8,8.146,17.663,16.354,26.362,24.412,8.074-7.142,16.2-14.327,24.208-21.407M91.039,61.947C99.582,54.3,107.862,46.88,116.1,39.508L93.731,19.13c-8.45,7.5-16.882,14.98-25.145,22.318l22.453,20.5M39.556,66.954c7.927,7.263,15.647,14.339,22.66,20.761,8.258-7.475,16.5-14.926,24.557-22.222C79.416,58.788,71.7,51.754,64,44.736L39.556,66.954" transform="translate(0 -0.001)" fill="none" stroke="#270f0c" stroke-width="0.5"/>
      <path id="Path_19" data-name="Path 19" d="M45.743,10.649c8.129,7.338,17.052,15.4,26.173,23.633L46.73,55.989C38.565,48.551,29.719,40.5,21.007,32.559c7.95-7.043,16.373-14.5,24.736-21.91m.432,11.359L33.811,33.283C37.66,37.1,41.8,41.213,45.394,44.776c4.6-3.846,9.116-7.617,13.681-11.43q-6.82-5.994-12.9-11.338" transform="translate(75.47 33.674)" fill="none" stroke="#270f0c" stroke-width="0.5"/>
      <path id="Path_20" data-name="Path 20" d="M65.313,41.2c-8,7.076-16.129,14.264-24.2,21.407-8.7-8.058-17.567-16.266-26.366-24.416,7.647-6.814,15.835-14.114,23.868-21.278,8.551,7.775,17.411,15.833,26.7,24.287M38.791,50.315l12.873-11.5L38.823,26.665c-4.354,3.767-8.8,7.6-13.475,11.65,4.51,4.025,8.91,7.954,13.443,12" transform="translate(52.97 53.483)" fill="none" stroke="#270f0c" stroke-width="0.5"/>
      <path id="Path_21" data-name="Path 21" d="M37.391,47.409c-7.445-6.793-15.05-13.736-22.458-20.5C23.2,19.576,31.627,12.1,40.082,4.6L62.448,24.975c-8.235,7.371-16.515,14.789-25.057,22.435m14.77-21.852C47.619,21.3,43.343,17.3,39.154,13.378,34.6,17.42,30.116,21.4,26.534,24.587c4.414,4.183,8.74,8.287,12.937,12.266,4.023-3.584,8.3-7.388,12.689-11.3" transform="translate(53.649 14.533)" fill="none" stroke="#270f0c" stroke-width="0.5"/>
      <path id="Path_22" data-name="Path 22" d="M8.613,32.962Q20.862,21.836,33.06,10.748c7.7,7.013,15.413,14.048,22.77,20.757L31.273,53.724C24.26,47.3,16.54,40.225,8.613,32.962M18.9,32.575c4.133,4.229,8.221,8.408,12.014,12.291C35.549,40.683,39.9,36.754,44.2,32.875q-6.269-5.632-13.1-11.767c-4.2,3.946-8.473,7.958-12.207,11.467" transform="translate(30.943 33.987)" fill="none" stroke="#270f0c" stroke-width="0.5"/>
      <path id="Path_23" data-name="Path 23" d="M36.158,13.378q6.076,5.344,12.9,11.338c-4.565,3.813-9.08,7.584-13.681,11.43-3.591-3.563-7.734-7.671-11.583-11.492L36.158,13.378" transform="translate(85.486 42.304)" fill="none" stroke="#270f0c" stroke-width="0.5"/>
      <path id="Path_24" data-name="Path 24" d="M30.5,42.906l-13.443-12c4.675-4.046,9.121-7.883,13.475-11.65L43.369,31.41,30.5,42.906" transform="translate(61.265 60.892)" fill="none" stroke="#270f0c" stroke-width="0.5"/>
      <path id="Path_25" data-name="Path 25" d="M43.086,18.885C38.7,22.793,34.42,26.6,30.4,30.181,26.2,26.2,21.873,22.1,17.459,17.915c3.582-3.184,8.065-7.167,12.621-11.209,4.188,3.921,8.464,7.925,13.006,12.179" transform="translate(62.724 21.205)" fill="none" stroke="#270f0c" stroke-width="0.5"/>
      <path id="Path_26" data-name="Path 26" d="M10.852,24.7c3.734-3.509,8.01-7.521,12.207-11.467q6.82,6.131,13.1,11.767C31.854,28.883,27.5,32.812,22.866,37c-3.794-3.883-7.881-8.062-12.014-12.291" transform="translate(38.987 41.858)" fill="none" stroke="#270f0c" stroke-width="0.5"/>
    </g>
  </g>
</svg>
